#
# Wavefront OBJ file: C:\Source\ACE Trunk\Ace.Adept\Support Files\Models\Viper 650\Viper 650 joint 6.obj
#
# Converted by the PolyTrans geometry converter from Okino Computer Graphics, Inc.
# Date/time of export: 05/07/2016 11:46:08
#
# Bounding box of geometry = (-32.5,-32.4523,-10) to (32.3095,32.4523,28).

mtllib Viper 650 joint 6.mtl

# Coordinates for object 'Boss-Extrude4#1'
v  10.000000 0.0 22.000000 
v  9.238795 3.826834 22.000000 
v  0.0 0.0 22.000000 
v  3.826834 -9.238795 22.000000 
v  7.071068 -7.071068 22.000000 
v  9.238795 -3.826834 22.000000 
v  -7.071068 -7.071068 22.000000 
v  -3.826834 -9.238795 22.000000 
v  0.0 -10.000000 22.000000 
v  -9.238795 3.826834 22.000000 
v  -10.000000 0.0 22.000000 
v  -9.238795 -3.826834 22.000000 
v  0.0 10.000000 22.000000 
v  -3.826834 9.238795 22.000000 
v  -7.071068 7.071068 22.000000 
v  7.071068 7.071068 22.000000 
v  3.826834 9.238795 22.000000 
v  10.000000 0.0 28.000000 
v  9.238795 3.826834 28.000000 
v  7.071068 7.071068 28.000000 
v  3.826834 9.238795 28.000000 
v  0.0 10.000000 28.000000 
v  -3.826834 9.238795 28.000000 
v  -7.071068 7.071068 28.000000 
v  -9.238795 3.826834 28.000000 
v  -10.000000 0.0 28.000000 
v  -9.238795 -3.826834 28.000000 
v  -7.071068 -7.071068 28.000000 
v  -3.826834 -9.238795 28.000000 
v  0.0 -10.000000 28.000000 
v  3.826834 -9.238795 28.000000 
v  7.071068 -7.071068 28.000000 
v  9.238795 -3.826834 28.000000 
v  19.813719 2.723333 28.000000 
v  18.344225 7.968021 28.000000 
v  11.533607 -16.339397 28.000000 
v  15.514226 -12.621758 28.000000 
v  18.344225 -7.968021 28.000000 
v  19.813719 -2.723333 28.000000 
v  -17.088387 -10.391679 28.000000 
v  -13.651063 -14.616719 28.000000 
v  -17.088387 10.391679 28.000000 
v  -19.258347 5.395936 28.000000 
v  -20.000000 0.0 28.000000 
v  -19.258347 -5.395936 28.000000 
v  -4.069120 19.581680 28.000000 
v  -9.201301 17.757704 28.000000 
v  -13.651063 14.616719 28.000000 
v  -9.201301 -17.757704 28.000000 
v  -4.069120 -19.581680 28.000000 
v  1.364848 -19.953375 28.000000 
v  6.697592 -18.845219 28.000000 
v  15.514226 12.621758 28.000000 
v  11.533607 16.339397 28.000000 
v  6.697592 18.845219 28.000000 
v  1.364848 19.953375 28.000000 
v  -20.000000 0.0 22.000000 
v  -19.258347 5.395936 22.000000 
v  -17.088387 10.391679 22.000000 
v  -13.651063 14.616719 22.000000 
v  -9.201301 17.757704 22.000000 
v  -4.069120 19.581680 22.000000 
v  1.364848 19.953375 22.000000 
v  6.697592 18.845219 22.000000 
v  11.533607 16.339397 22.000000 
v  15.514226 12.621758 22.000000 
v  18.344225 7.968021 22.000000 
v  19.813719 2.723333 22.000000 
v  19.813719 -2.723333 22.000000 
v  18.344225 -7.968021 22.000000 
v  15.514226 -12.621758 22.000000 
v  11.533607 -16.339397 22.000000 
v  6.697592 -18.845219 22.000000 
v  1.364848 -19.953375 22.000000 
v  -4.069120 -19.581680 22.000000 
v  -9.201301 -17.757704 22.000000 
v  -13.651063 -14.616719 22.000000 
v  -17.088387 -10.391679 22.000000 
v  -19.258347 -5.395936 22.000000 
v  -14.911700 -21.603327 22.000000 
v  -9.308378 -24.544176 22.000000 
v  -3.164088 -26.058609 22.000000 
v  3.164088 -26.058609 22.000000 
v  9.308378 -24.544176 22.000000 
v  14.911700 -21.603327 22.000000 
v  19.648407 -17.406971 22.000000 
v  23.243221 -12.198984 22.000000 
v  -14.911700 21.603327 22.000000 
v  -19.648407 17.406971 22.000000 
v  -23.243221 12.198984 22.000000 
v  -25.487223 6.282036 22.000000 
v  -26.250000 0.0 22.000000 
v  -25.487223 -6.282036 22.000000 
v  -23.243221 -12.198984 22.000000 
v  -19.648407 -17.406971 22.000000 
v  25.487223 -6.282036 22.000000 
v  26.250000 0.0 22.000000 
v  25.487223 6.282036 22.000000 
v  23.243221 12.198984 22.000000 
v  19.648407 17.406971 22.000000 
v  14.911700 21.603327 22.000000 
v  9.308378 24.544176 22.000000 
v  3.164088 26.058609 22.000000 
v  -3.164088 26.058609 22.000000 
v  -9.308378 24.544176 22.000000 
v  -26.250000 0.0 16.000000 
v  -25.487223 6.282036 16.000000 
v  -23.243221 12.198984 16.000000 
v  -19.648407 17.406971 16.000000 
v  -14.911700 21.603327 16.000000 
v  -9.308378 24.544176 16.000000 
v  -3.164088 26.058609 16.000000 
v  3.164088 26.058609 16.000000 
v  9.308378 24.544176 16.000000 
v  14.911700 21.603327 16.000000 
v  19.648407 17.406971 16.000000 
v  23.243221 12.198984 16.000000 
v  25.487223 6.282036 16.000000 
v  26.250000 0.0 16.000000 
v  25.487223 -6.282036 16.000000 
v  23.243221 -12.198984 16.000000 
v  19.648407 -17.406971 16.000000 
v  14.911700 -21.603327 16.000000 
v  9.308378 -24.544176 16.000000 
v  3.164088 -26.058609 16.000000 
v  -3.164088 -26.058609 16.000000 
v  -9.308378 -24.544176 16.000000 
v  -14.911700 -21.603327 16.000000 
v  -19.648407 -17.406971 16.000000 
v  -23.243221 -12.198984 16.000000 
v  -25.487223 -6.282036 16.000000 
v  -15.223274 -28.714140 16.000000 
v  -8.694671 -31.315374 16.000000 
v  -1.759515 -32.452339 16.000000 
v  5.257915 -32.071861 16.000000 
v  12.029490 -30.191744 16.000000 
v  18.238581 -26.899893 16.000000 
v  23.594854 -22.350233 16.000000 
v  27.847858 -16.755501 16.000000 
v  30.798727 -10.377300 16.000000 
v  -21.040054 24.770267 16.000000 
v  -25.873024 19.668161 16.000000 
v  -29.496201 13.646396 16.000000 
v  -31.740166 6.986539 16.000000 
v  -32.500000 0.0 16.000000 
v  -31.740166 -6.986539 16.000000 
v  -29.496201 -13.646396 16.000000 
v  -25.873024 -19.668161 16.000000 
v  -21.040054 -24.770267 16.000000 
v  32.309483 -3.513868 16.000000 
v  32.309483 3.513868 16.000000 
v  30.798727 10.377300 16.000000 
v  27.847858 16.755501 16.000000 
v  23.594854 22.350233 16.000000 
v  18.238581 26.899893 16.000000 
v  12.029490 30.191744 16.000000 
v  5.257915 32.071861 16.000000 
v  -1.759515 32.452339 16.000000 
v  -8.694671 31.315374 16.000000 
v  -15.223274 28.714140 16.000000 
v  9.575555 8.034845 -10.000000 
v  11.746158 4.275252 -10.000000 
v  0.0 0.0 -10.000000 
v  12.500000 0.0 -10.000000 
v  11.746158 -4.275252 -10.000000 
v  -2.170602 12.310097 -10.000000 
v  2.170602 12.310097 -10.000000 
v  6.250000 10.825317 -10.000000 
v  -11.746158 4.275252 -10.000000 
v  -9.575555 8.034845 -10.000000 
v  -6.250000 10.825317 -10.000000 
v  -9.575555 -8.034845 -10.000000 
v  -11.746158 -4.275252 -10.000000 
v  -12.500000 0.0 -10.000000 
v  2.170602 -12.310097 -10.000000 
v  -2.170602 -12.310097 -10.000000 
v  -6.250000 -10.825317 -10.000000 
v  9.575555 -8.034845 -10.000000 
v  6.250000 -10.825317 -10.000000 
v  -32.500000 0.0 0.0 
v  -31.740166 6.986539 0.0 
v  -29.496201 13.646396 0.0 
v  -25.873024 19.668161 0.0 
v  -21.040054 24.770267 0.0 
v  -15.223274 28.714140 0.0 
v  -8.694671 31.315374 0.0 
v  -1.759515 32.452339 0.0 
v  5.257915 32.071861 0.0 
v  12.029490 30.191744 0.0 
v  18.238581 26.899893 0.0 
v  23.594854 22.350233 0.0 
v  27.847858 16.755501 0.0 
v  30.798727 10.377300 0.0 
v  32.309483 3.513868 0.0 
v  32.309483 -3.513868 0.0 
v  30.798727 -10.377300 0.0 
v  27.847858 -16.755501 0.0 
v  23.594854 -22.350233 0.0 
v  18.238581 -26.899893 0.0 
v  12.029490 -30.191744 0.0 
v  5.257915 -32.071861 0.0 
v  -1.759515 -32.452339 0.0 
v  -8.694671 -31.315374 0.0 
v  -15.223274 -28.714140 0.0 
v  -21.040054 -24.770267 0.0 
v  -25.873024 -19.668161 0.0 
v  -29.496201 -13.646396 0.0 
v  -31.740166 -6.986539 0.0 
v  12.500000 0.0 0.0 
v  11.746158 4.275252 0.0 
v  9.575555 8.034845 0.0 
v  6.250000 10.825317 0.0 
v  2.170602 12.310097 0.0 
v  -2.170602 12.310097 0.0 
v  -6.250000 10.825317 0.0 
v  -9.575555 8.034845 0.0 
v  -11.746158 4.275252 0.0 
v  -12.500000 0.0 0.0 
v  -11.746158 -4.275252 0.0 
v  -9.575555 -8.034845 0.0 
v  -6.250000 -10.825317 0.0 
v  -2.170602 -12.310097 0.0 
v  2.170602 -12.310097 0.0 
v  6.250000 -10.825317 0.0 
v  9.575555 -8.034845 0.0 
v  11.746158 -4.275252 0.0 
# 226 vertices

# 0 texture vertices

vn  0.0 0.0 1.0 
vn  -1.0 0.0 0.0 
vn  -0.923880 -0.382683 0.0 
vn  -0.707107 -0.707107 0.0 
vn  -0.382683 -0.923880 0.0 
vn  0.0 -1.0 0.0 
vn  0.382683 -0.923880 0.0 
vn  0.707107 -0.707107 0.0 
vn  0.923880 -0.382683 0.0 
vn  1.0 0.0 0.0 
vn  0.923880 0.382683 0.0 
vn  0.707107 0.707107 0.0 
vn  0.382683 0.923880 0.0 
vn  0.0 1.0 0.0 
vn  -0.382683 0.923880 0.0 
vn  -0.707107 0.707107 0.0 
vn  -0.923880 0.382683 0.0 
vn  -0.962917 0.269797 0.0 
vn  -0.854419 0.519584 0.0 
vn  -0.682553 0.730836 0.0 
vn  -0.460065 0.887885 0.0 
vn  -0.203456 0.979084 0.0 
vn  0.068242 0.997669 0.0 
vn  0.334880 0.942261 0.0 
vn  0.576680 0.816970 0.0 
vn  0.775711 0.631088 0.0 
vn  0.917211 0.398401 0.0 
vn  0.990686 0.136167 0.0 
vn  0.990686 -0.136167 0.0 
vn  0.917211 -0.398401 0.0 
vn  0.775711 -0.631088 0.0 
vn  0.576680 -0.816970 0.0 
vn  0.334880 -0.942261 0.0 
vn  0.068242 -0.997669 0.0 
vn  -0.203456 -0.979084 0.0 
vn  -0.460065 -0.887885 0.0 
vn  -0.682553 -0.730836 0.0 
vn  -0.854419 -0.519584 0.0 
vn  -0.962917 -0.269797 0.0 
vn  -0.970942 0.239316 0.0 
vn  -0.885456 0.464723 0.0 
vn  -0.748511 0.663123 0.0 
vn  -0.568065 0.822984 0.0 
vn  -0.354605 0.935016 0.0 
vn  -0.120537 0.992709 0.0 
vn  0.120537 0.992709 0.0 
vn  0.354605 0.935016 0.0 
vn  0.568065 0.822984 0.0 
vn  0.748511 0.663123 0.0 
vn  0.885456 0.464723 0.0 
vn  0.970942 0.239316 0.0 
vn  0.970942 -0.239316 0.0 
vn  0.885456 -0.464723 0.0 
vn  0.748511 -0.663123 0.0 
vn  0.568065 -0.822984 0.0 
vn  0.354605 -0.935016 0.0 
vn  0.120537 -0.992709 0.0 
vn  -0.120537 -0.992709 0.0 
vn  -0.354605 -0.935016 0.0 
vn  -0.568065 -0.822984 0.0 
vn  -0.748511 -0.663123 0.0 
vn  -0.885456 -0.464723 0.0 
vn  -0.970942 -0.239316 0.0 
vn  0.0 0.0 -1.0 
vn  -0.976621 0.214970 0.0 
vn  -0.907575 0.419889 0.0 
vn  -0.796093 0.605174 0.0 
vn  -0.647386 0.762162 0.0 
vn  -0.468408 0.883512 0.0 
vn  -0.267528 0.963550 0.0 
vn  -0.054139 0.998533 0.0 
vn  0.161782 0.986827 0.0 
vn  0.370138 0.928977 0.0 
vn  0.561187 0.827689 0.0 
vn  0.725995 0.687699 0.0 
vn  0.856857 0.515554 0.0 
vn  0.947653 0.319302 0.0 
vn  0.994138 0.108119 0.0 
vn  0.994138 -0.108119 0.0 
vn  0.947653 -0.319302 0.0 
vn  0.856857 -0.515554 0.0 
vn  0.725995 -0.687699 0.0 
vn  0.561187 -0.827689 0.0 
vn  0.370138 -0.928977 0.0 
vn  0.161782 -0.986827 0.0 
vn  -0.054139 -0.998533 0.0 
vn  -0.267528 -0.963550 0.0 
vn  -0.468408 -0.883512 0.0 
vn  -0.647386 -0.762162 0.0 
vn  -0.796093 -0.605174 0.0 
vn  -0.907575 -0.419889 0.0 
vn  -0.976621 -0.214970 0.0 
vn  0.939693 0.342020 0.0 
vn  0.766044 0.642788 0.0 
vn  0.500000 0.866025 0.0 
vn  0.173648 0.984808 0.0 
vn  -0.173648 0.984808 0.0 
vn  -0.500000 0.866025 0.0 
vn  -0.766044 0.642788 0.0 
vn  -0.939693 0.342020 0.0 
vn  -0.939693 -0.342020 0.0 
vn  -0.766044 -0.642788 0.0 
vn  -0.500000 -0.866025 0.0 
vn  -0.173648 -0.984808 0.0 
vn  0.173648 -0.984808 0.0 
vn  0.500000 -0.866025 0.0 
vn  0.766044 -0.642788 0.0 
vn  0.939693 -0.342020 0.0 
# 108 normals

usemtl AdeptAIB

o Boss_Extrude4_1_0
g Boss_Extrude4_1_0

s off
f 1//1 2//1 3//1
f 4//1 5//1 3//1
f 3//1 5//1 6//1
f 3//1 6//1 1//1
f 7//1 8//1 3//1
f 3//1 8//1 9//1
f 3//1 9//1 4//1
f 10//1 11//1 3//1
f 3//1 11//1 12//1
f 3//1 12//1 7//1
f 13//1 14//1 3//1
f 3//1 14//1 15//1
f 3//1 15//1 10//1
f 2//1 16//1 3//1
f 3//1 16//1 17//1
f 3//1 17//1 13//1
f 1//2 18//2 2//3
f 2//3 18//2 19//3
f 2//3 19//3 16//4
f 16//4 19//3 20//4
f 16//4 20//4 17//5
f 17//5 20//4 21//5
f 17//5 21//5 13//6
f 13//6 21//5 22//6
f 13//6 22//6 14//7
f 14//7 22//6 23//7
f 14//7 23//7 15//8
f 15//8 23//7 24//8
f 15//8 24//8 10//9
f 10//9 24//8 25//9
f 10//9 25//9 11//10
f 11//10 25//9 26//10
f 11//10 26//10 12//11
f 12//11 26//10 27//11
f 12//11 27//11 7//12
f 7//12 27//11 28//12
f 7//12 28//12 8//13
f 8//13 28//12 29//13
f 8//13 29//13 9//14
f 9//14 29//13 30//14
f 9//14 30//14 4//15
f 4//15 30//14 31//15
f 4//15 31//15 5//16
f 5//16 31//15 32//16
f 5//16 32//16 6//17
f 6//17 32//16 33//17
f 6//17 33//17 1//2
f 1//2 33//17 18//2
f 18//1 34//1 19//1
f 19//1 34//1 35//1
f 19//1 35//1 20//1
f 31//1 36//1 32//1
f 32//1 36//1 37//1
f 32//1 37//1 33//1
f 33//1 37//1 38//1
f 33//1 38//1 18//1
f 18//1 38//1 39//1
f 18//1 39//1 34//1
f 27//1 40//1 28//1
f 28//1 40//1 41//1
f 28//1 41//1 29//1
f 24//1 42//1 25//1
f 25//1 42//1 43//1
f 25//1 43//1 26//1
f 26//1 43//1 44//1
f 26//1 44//1 27//1
f 27//1 44//1 45//1
f 27//1 45//1 40//1
f 22//1 46//1 23//1
f 23//1 46//1 47//1
f 23//1 47//1 24//1
f 24//1 47//1 48//1
f 24//1 48//1 42//1
f 41//1 49//1 29//1
f 29//1 49//1 50//1
f 29//1 50//1 30//1
f 30//1 50//1 51//1
f 30//1 51//1 31//1
f 31//1 51//1 52//1
f 31//1 52//1 36//1
f 35//1 53//1 20//1
f 20//1 53//1 54//1
f 20//1 54//1 21//1
f 21//1 54//1 55//1
f 21//1 55//1 22//1
f 22//1 55//1 56//1
f 22//1 56//1 46//1
f 57//2 43//18 58//18
f 58//18 43//18 42//19
f 58//18 42//19 59//19
f 59//19 42//19 48//20
f 59//19 48//20 60//20
f 60//20 48//20 47//21
f 60//20 47//21 61//21
f 61//21 47//21 46//22
f 61//21 46//22 62//22
f 62//22 46//22 56//23
f 62//22 56//23 63//23
f 63//23 56//23 55//24
f 63//23 55//24 64//24
f 64//24 55//24 54//25
f 64//24 54//25 65//25
f 65//25 54//25 53//26
f 65//25 53//26 66//26
f 66//26 53//26 35//27
f 66//26 35//27 67//27
f 67//27 35//27 34//28
f 67//27 34//28 68//28
f 68//28 34//28 39//29
f 68//28 39//29 69//29
f 69//29 39//29 38//30
f 69//29 38//30 70//30
f 70//30 38//30 37//31
f 70//30 37//31 71//31
f 71//31 37//31 36//32
f 71//31 36//32 72//32
f 72//32 36//32 52//33
f 72//32 52//33 73//33
f 73//33 52//33 51//34
f 73//33 51//34 74//34
f 74//34 51//34 50//35
f 74//34 50//35 75//35
f 75//35 50//35 49//36
f 75//35 49//36 76//36
f 76//36 49//36 41//37
f 76//36 41//37 77//37
f 77//37 41//37 40//38
f 77//37 40//38 78//38
f 78//38 40//38 45//39
f 78//38 45//39 79//39
f 79//39 45//39 44//2
f 79//39 44//2 57//2
f 57//2 44//2 43//18
f 77//1 80//1 76//1
f 76//1 80//1 81//1
f 76//1 81//1 75//1
f 75//1 81//1 82//1
f 75//1 82//1 74//1
f 74//1 82//1 83//1
f 74//1 83//1 73//1
f 73//1 83//1 84//1
f 73//1 84//1 72//1
f 72//1 84//1 85//1
f 72//1 85//1 71//1
f 71//1 85//1 86//1
f 71//1 86//1 70//1
f 70//1 86//1 87//1
f 70//1 87//1 69//1
f 61//1 88//1 60//1
f 60//1 88//1 89//1
f 60//1 89//1 59//1
f 59//1 89//1 90//1
f 59//1 90//1 58//1
f 58//1 90//1 91//1
f 58//1 91//1 57//1
f 57//1 91//1 92//1
f 57//1 92//1 79//1
f 79//1 92//1 93//1
f 79//1 93//1 78//1
f 78//1 93//1 94//1
f 78//1 94//1 77//1
f 77//1 94//1 95//1
f 77//1 95//1 80//1
f 87//1 96//1 69//1
f 69//1 96//1 97//1
f 69//1 97//1 68//1
f 68//1 97//1 98//1
f 68//1 98//1 67//1
f 67//1 98//1 99//1
f 67//1 99//1 66//1
f 66//1 99//1 100//1
f 66//1 100//1 65//1
f 65//1 100//1 101//1
f 65//1 101//1 64//1
f 64//1 101//1 102//1
f 64//1 102//1 63//1
f 63//1 102//1 103//1
f 63//1 103//1 62//1
f 62//1 103//1 104//1
f 62//1 104//1 61//1
f 61//1 104//1 105//1
f 61//1 105//1 88//1
f 106//2 91//40 107//40
f 107//40 91//40 90//41
f 107//40 90//41 108//41
f 108//41 90//41 89//42
f 108//41 89//42 109//42
f 109//42 89//42 88//43
f 109//42 88//43 110//43
f 110//43 88//43 105//44
f 110//43 105//44 111//44
f 111//44 105//44 104//45
f 111//44 104//45 112//45
f 112//45 104//45 103//46
f 112//45 103//46 113//46
f 113//46 103//46 102//47
f 113//46 102//47 114//47
f 114//47 102//47 101//48
f 114//47 101//48 115//48
f 115//48 101//48 100//49
f 115//48 100//49 116//49
f 116//49 100//49 99//50
f 116//49 99//50 117//50
f 117//50 99//50 98//51
f 117//50 98//51 118//51
f 118//51 98//51 97//10
f 118//51 97//10 119//10
f 119//10 97//10 96//52
f 119//10 96//52 120//52
f 120//52 96//52 87//53
f 120//52 87//53 121//53
f 121//53 87//53 86//54
f 121//53 86//54 122//54
f 122//54 86//54 85//55
f 122//54 85//55 123//55
f 123//55 85//55 84//56
f 123//55 84//56 124//56
f 124//56 84//56 83//57
f 124//56 83//57 125//57
f 125//57 83//57 82//58
f 125//57 82//58 126//58
f 126//58 82//58 81//59
f 126//58 81//59 127//59
f 127//59 81//59 80//60
f 127//59 80//60 128//60
f 128//60 80//60 95//61
f 128//60 95//61 129//61
f 129//61 95//61 94//62
f 129//61 94//62 130//62
f 130//62 94//62 93//63
f 130//62 93//63 131//63
f 131//63 93//63 92//2
f 131//63 92//2 106//2
f 106//2 92//2 91//40
f 128//1 132//1 127//1
f 127//1 132//1 133//1
f 127//1 133//1 126//1
f 126//1 133//1 134//1
f 126//1 134//1 125//1
f 125//1 134//1 135//1
f 125//1 135//1 124//1
f 124//1 135//1 136//1
f 124//1 136//1 123//1
f 123//1 136//1 137//1
f 123//1 137//1 122//1
f 122//1 137//1 138//1
f 122//1 138//1 121//1
f 121//1 138//1 139//1
f 121//1 139//1 120//1
f 120//1 139//1 140//1
f 120//1 140//1 119//1
f 110//1 141//1 109//1
f 109//1 141//1 142//1
f 109//1 142//1 108//1
f 108//1 142//1 143//1
f 108//1 143//1 107//1
f 107//1 143//1 144//1
f 107//1 144//1 106//1
f 106//1 144//1 145//1
f 106//1 145//1 131//1
f 131//1 145//1 146//1
f 131//1 146//1 130//1
f 130//1 146//1 147//1
f 130//1 147//1 129//1
f 129//1 147//1 148//1
f 129//1 148//1 128//1
f 128//1 148//1 149//1
f 128//1 149//1 132//1
f 140//1 150//1 119//1
f 119//1 150//1 151//1
f 119//1 151//1 118//1
f 118//1 151//1 152//1
f 118//1 152//1 117//1
f 117//1 152//1 153//1
f 117//1 153//1 116//1
f 116//1 153//1 154//1
f 116//1 154//1 115//1
f 115//1 154//1 155//1
f 115//1 155//1 114//1
f 114//1 155//1 156//1
f 114//1 156//1 113//1
f 113//1 156//1 157//1
f 113//1 157//1 112//1
f 112//1 157//1 158//1
f 112//1 158//1 111//1
f 111//1 158//1 159//1
f 111//1 159//1 110//1
f 110//1 159//1 160//1
f 110//1 160//1 141//1
f 161//64 162//64 163//64
f 163//64 162//64 164//64
f 163//64 164//64 165//64
f 166//64 167//64 163//64
f 163//64 167//64 168//64
f 163//64 168//64 161//64
f 169//64 170//64 163//64
f 163//64 170//64 171//64
f 163//64 171//64 166//64
f 172//64 173//64 163//64
f 163//64 173//64 174//64
f 163//64 174//64 169//64
f 175//64 176//64 163//64
f 163//64 176//64 177//64
f 163//64 177//64 172//64
f 165//64 178//64 163//64
f 163//64 178//64 179//64
f 163//64 179//64 175//64
f 180//2 144//65 181//65
f 181//65 144//65 143//66
f 181//65 143//66 182//66
f 182//66 143//66 142//67
f 182//66 142//67 183//67
f 183//67 142//67 141//68
f 183//67 141//68 184//68
f 184//68 141//68 160//69
f 184//68 160//69 185//69
f 185//69 160//69 159//70
f 185//69 159//70 186//70
f 186//70 159//70 158//71
f 186//70 158//71 187//71
f 187//71 158//71 157//72
f 187//71 157//72 188//72
f 188//72 157//72 156//73
f 188//72 156//73 189//73
f 189//73 156//73 155//74
f 189//73 155//74 190//74
f 190//74 155//74 154//75
f 190//74 154//75 191//75
f 191//75 154//75 153//76
f 191//75 153//76 192//76
f 192//76 153//76 152//77
f 192//76 152//77 193//77
f 193//77 152//77 151//78
f 193//77 151//78 194//78
f 194//78 151//78 150//79
f 194//78 150//79 195//79
f 195//79 150//79 140//80
f 195//79 140//80 196//80
f 196//80 140//80 139//81
f 196//80 139//81 197//81
f 197//81 139//81 138//82
f 197//81 138//82 198//82
f 198//82 138//82 137//83
f 198//82 137//83 199//83
f 199//83 137//83 136//84
f 199//83 136//84 200//84
f 200//84 136//84 135//85
f 200//84 135//85 201//85
f 201//85 135//85 134//86
f 201//85 134//86 202//86
f 202//86 134//86 133//87
f 202//86 133//87 203//87
f 203//87 133//87 132//88
f 203//87 132//88 204//88
f 204//88 132//88 149//89
f 204//88 149//89 205//89
f 205//89 149//89 148//90
f 205//89 148//90 206//90
f 206//90 148//90 147//91
f 206//90 147//91 207//91
f 207//91 147//91 146//92
f 207//91 146//92 208//92
f 208//92 146//92 145//2
f 208//92 145//2 180//2
f 180//2 145//2 144//65
f 209//10 162//93 210//93
f 210//93 162//93 161//94
f 210//93 161//94 211//94
f 211//94 161//94 168//95
f 211//94 168//95 212//95
f 212//95 168//95 167//96
f 212//95 167//96 213//96
f 213//96 167//96 166//97
f 213//96 166//97 214//97
f 214//97 166//97 171//98
f 214//97 171//98 215//98
f 215//98 171//98 170//99
f 215//98 170//99 216//99
f 216//99 170//99 169//100
f 216//99 169//100 217//100
f 217//100 169//100 174//2
f 217//100 174//2 218//2
f 218//2 174//2 173//101
f 218//2 173//101 219//101
f 219//101 173//101 172//102
f 219//101 172//102 220//102
f 220//102 172//102 177//103
f 220//102 177//103 221//103
f 221//103 177//103 176//104
f 221//103 176//104 222//104
f 222//104 176//104 175//105
f 222//104 175//105 223//105
f 223//105 175//105 179//106
f 223//105 179//106 224//106
f 224//106 179//106 178//107
f 224//106 178//107 225//107
f 225//107 178//107 165//108
f 225//107 165//108 226//108
f 226//108 165//108 164//10
f 226//108 164//10 209//10
f 209//10 164//10 162//93
f 218//64 219//64 208//64
f 221//64 205//64 220//64
f 220//64 205//64 206//64
f 220//64 206//64 219//64
f 219//64 206//64 207//64
f 219//64 207//64 208//64
f 223//64 202//64 222//64
f 222//64 202//64 203//64
f 222//64 203//64 221//64
f 221//64 203//64 204//64
f 221//64 204//64 205//64
f 210//64 211//64 192//64
f 213//64 189//64 212//64
f 212//64 189//64 190//64
f 212//64 190//64 211//64
f 211//64 190//64 191//64
f 211//64 191//64 192//64
f 214//64 187//64 213//64
f 213//64 187//64 188//64
f 213//64 188//64 189//64
f 208//64 180//64 218//64
f 218//64 180//64 181//64
f 218//64 181//64 217//64
f 217//64 181//64 182//64
f 217//64 182//64 216//64
f 192//64 193//64 210//64
f 210//64 193//64 194//64
f 210//64 194//64 209//64
f 209//64 194//64 195//64
f 209//64 195//64 226//64
f 182//64 183//64 216//64
f 216//64 183//64 184//64
f 216//64 184//64 215//64
f 215//64 184//64 185//64
f 215//64 185//64 214//64
f 214//64 185//64 186//64
f 214//64 186//64 187//64
f 224//64 200//64 223//64
f 223//64 200//64 201//64
f 223//64 201//64 202//64
f 195//64 196//64 226//64
f 226//64 196//64 197//64
f 226//64 197//64 225//64
f 225//64 197//64 198//64
f 225//64 198//64 224//64
f 224//64 198//64 199//64
f 224//64 199//64 200//64
# 448 polygons
